<?xml version="1.0" encoding="utf-8"?>
<!DOCTYPE svg PUBLIC "-//W3C//DTD SVG 1.1//EN" "http://www.w3.org/Graphics/SVG/1.1/DTD/svg11.dtd">
<svg version="1.1" id="Layer_1" xmlns="http://www.w3.org/2000/svg" xmlns:xlink="http://www.w3.org/1999/xlink" x="0px" y="0px"
	 width="198.43px" height="198.43px" viewBox="0 0 198.43 198.43" enable-background="new 0 0 198.43 198.43" xml:space="preserve">
<path fill="#1BCC91" d="M0,0v198h198V0H0z M145.9,115.794c2.983,0,5.401,2.418,5.401,5.401c0,2.983-2.418,5.401-5.401,5.401
	c-2.983,0-5.401-2.418-5.401-5.401C140.499,118.213,142.917,115.794,145.9,115.794z M157.57,182.18
	c-0.167,0.006-0.332,0.008-0.497,0.008c-3.42,0-6.448-1.18-8.784-3.429c-1.625-1.565-2.764-3.187-3.569-4.797
	c-5.532,7.76-10.495,8.226-12.329,8.226c-13.839,0-18.771-15.306-21.074-20.427L95,120.303V182h-6v-77.323L61.127,35.09
	c-2.367-5.963-5.89-9.868-10.23-11.607c-5.042-2.019-10.543-0.679-12.962,0.433c-1.993,0.916-6.26,3.915-8.026,8.706
	c-1.4,3.802-1.036,8.08,1.112,12.716c5.198,11.216,19.528,6.094,20.163,5.86l3.559,4.554c-7.227,2.692-23.271,5.344-29.363-7.805
	c-2.867-6.186-3.311-12.063-1.32-17.469c2.304-6.254,7.487-10.48,11.225-12.198c4.124-1.896,11.255-3.174,17.799-0.555
	c5.982,2.397,10.791,7.47,13.811,15.077L89,87.867V16h6v87.494l22.117,56.067c1.714,3.796,6.562,17.385,16.221,16.377
	c0,0,5.214-0.133,9.748-8.31c-0.139-1.366-0.086-2.636-0.086-3.744v-22.216l6-2.616v24.817c0,1.943,0.704,7.652,3.604,10.432
	c1.245,1.194,2.787,1.737,4.763,1.678c9.229-0.303,13.406-11.375,13.446-11.484l4.781-0.888
	C175.371,164.208,170.998,181.74,157.57,182.18z"/>
<path d="M42.017,50.971"/>
</svg>
